<svg xmlns="http://www.w3.org/2000/svg" id="Layer_1" data-name="Layer 1" viewBox="0 0 70 70"><defs fill="#000000"><style>.cls-1{fill:#257fea;}</style></defs><title>icon-driling</title><g id="Drilling"><path class="cls-1" d="M35.34,45.71,39.16,42a.62.62,0,0,0,.19-.45V34.77a4.45,4.45,0,1,0-8.89,0v6.82a.59.59,0,0,0,.2.45l3.82,3.67a.63.63,0,0,0,.43.17A.65.65,0,0,0,35.34,45.71Zm-3.63-4.38V34.77a3.2,3.2,0,1,1,6.39,0v6.56l-3.19,3.06Z" fill="#000000"/><path class="cls-1" d="M35.51,57.27A.62.62,0,0,0,35,57a.6.6,0,0,0-.51.24L30.3,62.75a.63.63,0,0,0,0,.8L31.8,65.2a.64.64,0,0,0,.47.21h1c.3.68.93,1.42,1.49,1.42h0c.54,0,1.1-.74,1.37-1.42h1.1a.64.64,0,0,0,.47-.21l1.44-1.62a.62.62,0,0,0,.05-.76ZM37,64.16h-.76a1.59,1.59,0,0,0-1.56-1.06,1.61,1.61,0,0,0-1.46,1.06h-.64l-.94-1.06L35,58.69l3,4.42Z" fill="#000000"/><path class="cls-1" d="M57.93,56.29h0V38.41a.72.72,0,0,0-.08-.32l-4.66-7.84a.63.63,0,0,0-.54-.31H50.4V26.51a.64.64,0,0,0-.19-.45l-.85-.84a.67.67,0,0,0-.44-.18H45.48L45,21.79l1.59-.08a.63.63,0,0,0,.6-.65.65.65,0,0,0-.66-.6l-1.7.08-.44-3.26L46,17.2a.62.62,0,0,0,.59-.65.63.63,0,0,0-.65-.6L44.26,16l-.44-3.27,1.41-.07a.62.62,0,0,0,.59-.65.63.63,0,0,0-.65-.6l-1.52.08-.44-3.26,1.48-.08a.62.62,0,0,0,.59-.66.61.61,0,0,0-.65-.59L43.05,7l-.28-2a.59.59,0,0,0-.18-.36L41.33,3.35a.65.65,0,0,0-.44-.18H28.55a.63.63,0,0,0-.44.18L26.84,4.62a.65.65,0,0,0-.18.36l-.39,2.94L24.54,8a.63.63,0,0,0,0,1.25h0l1.49-.08-.44,3.26L24,12.52a.63.63,0,0,0,0,1.25h0l1.42-.07L25.05,17,23.44,17a.61.61,0,0,0-.59.65.62.62,0,0,0,.62.59h0l1.38-.06-.44,3.26L23,21.54a.63.63,0,0,0,0,1.25h0l1.25-.05L24,25H20.9a.65.65,0,0,0-.44.18l-.85.84a.64.64,0,0,0-.19.45v3.43H17.36a.63.63,0,0,0-.54.31l-4.66,7.84a.72.72,0,0,0-.08.32V56.28h0c-.84,3.47-.16,6.08,2,7.55a7.44,7.44,0,0,0,2,.93,2.75,2.75,0,0,0,.17.49c.35.8.73.87.86.9h.12a2.06,2.06,0,0,0,1.38-1h.07A11.48,11.48,0,0,0,22,64.61a2.93,2.93,0,0,0,1.74.81.8.8,0,0,0,.41-.1c.47-.26.64-1.16.57-1.89a14.3,14.3,0,0,0,2.43-1.72,3.34,3.34,0,0,0,1.12.23,1.19,1.19,0,0,0,.84-.26c.41-.41.29-1.42,0-2.11.1-.14.21-.26.31-.4A14.92,14.92,0,0,0,30.61,57c.71,0,1.54-.25,1.75-.72s-.28-1.53-.85-2A13.32,13.32,0,0,0,31.79,51c.57-.28,1.16-.82,1.14-1.32,0-.12,0-.51-.76-1a3.16,3.16,0,0,0-.77-.33,8.62,8.62,0,0,0-3.27-4.92,3.72,3.72,0,0,0-.52-.3V30.55a.61.61,0,0,0,0-.13.29.29,0,0,0,0-.1s0-.06-.06-.09a.28.28,0,0,0-.08-.11s0,0,0,0a.2.2,0,0,0-.08,0L27.21,30l-.14,0-.09,0H20.67V26.77l.49-.48h27.5l.49.48v3.17H43l-.08,0-.14,0-.11.06-.08.05s0,0,0,0a.28.28,0,0,0-.08.11s0,.05-.06.09a.29.29,0,0,0,0,.1.61.61,0,0,0,0,.13V43.14a3.34,3.34,0,0,0-.53.3,8.62,8.62,0,0,0-3.27,4.92,2.81,2.81,0,0,0-.77.33c-.74.47-.76.86-.76,1,0,.5.57,1,1.14,1.32a13.32,13.32,0,0,0,.28,3.21c-.57.52-1.1,1.49-.85,2s1,.71,1.75.72a14.92,14.92,0,0,0,1.24,2.2c.1.14.21.26.31.4-.31.69-.43,1.7,0,2.11a1.19,1.19,0,0,0,.84.26,3.34,3.34,0,0,0,1.12-.23,14.3,14.3,0,0,0,2.43,1.72c-.07.73.1,1.63.57,1.89a.8.8,0,0,0,.41.1A2.93,2.93,0,0,0,48,64.61a11.48,11.48,0,0,0,3.38.55h.07a2.06,2.06,0,0,0,1.38,1H53a1,1,0,0,0,.63-.48,3,3,0,0,0,.39-.91,6.79,6.79,0,0,0,2-.93C58.09,62.37,58.77,59.76,57.93,56.29ZM13.33,39h6.09V57.48a3.85,3.85,0,0,1-2.45.75,4.34,4.34,0,0,1-3.64-2Zm15,6.21a7.82,7.82,0,0,1,1.86,3.39c-.06,0-.13.07-.18.13a1.46,1.46,0,0,0-.38,1,1.43,1.43,0,0,0,.47,1,1.34,1.34,0,0,0,.45.29,12,12,0,0,1-.21,2.67,1.51,1.51,0,0,0-.47.09,1.61,1.61,0,0,0-.9.84,1.59,1.59,0,0,0,.45,1.9,12.28,12.28,0,0,1-1.07,1.86c-.05.08-.11.15-.16.22a1.61,1.61,0,0,0-2.05,2.18,14.54,14.54,0,0,1-2,1.4,1.61,1.61,0,0,0-1.84-.2,1.58,1.58,0,0,0-.76,1,1.4,1.4,0,0,0-.06.41,9.92,9.92,0,0,1-2.75.47,1.42,1.42,0,0,0-.17-.4,1.44,1.44,0,0,0-.93-.61,1.43,1.43,0,0,0-1.08.23,1.32,1.32,0,0,0-.39.39,6,6,0,0,1-1.41-.71,3.88,3.88,0,0,1-1.54-2.19,4.37,4.37,0,0,0,.6.53,5.29,5.29,0,0,0,3,.88,8.77,8.77,0,0,0,3.26-.71,14.64,14.64,0,0,0,6.18-5.24C28.8,52.42,29.56,48.18,28.32,45.25Zm-1.1.64c1,2.52.23,6.28-2,9.48a13.4,13.4,0,0,1-5.64,4.79c-2,.84-3.83.82-5.08,0a2.84,2.84,0,0,1-1.16-2A5.56,5.56,0,0,0,17,59.48a4.94,4.94,0,0,0,3.5-1.24s0,0,0,0A24.12,24.12,0,0,0,27.22,45.89Zm-.85-2.25a23.51,23.51,0,0,1-5.7,12.57V38.56l5.69-6.36Zm-.78-12.45-5.91,6.6H13.8l3.91-6.6ZM27.88,5.35l.93-.93H40.63l.93.93.23,1.74-14.25.76Zm-.51,3.76L42,8.33l.44,3.25-15.47.79Zm-.61,4.52,15.81-.8L43,16.09l-16.69.81Zm-.61,4.53,17-.82.44,3.26-17.91.82ZM25.22,25l.32-2.36,18.25-.84.43,3.2Zm27.07,6.15,3.91,6.6H50.32l-5.91-6.6ZM56.67,39V56.26a4.34,4.34,0,0,1-3.64,2,3.85,3.85,0,0,1-2.45-.75V39Zm-13-6.84,5.69,6.36V56.21a23.45,23.45,0,0,1-5.69-12.48Zm-.87,13.7a24.16,24.16,0,0,0,6.74,12.32l0,0A4.94,4.94,0,0,0,53,59.48a5.58,5.58,0,0,0,3.61-1.33,2.84,2.84,0,0,1-1.16,2c-2.69,1.85-7.7-.36-10.72-4.75C42.55,52.18,41.81,48.43,42.77,45.9ZM55.25,62.81a6,6,0,0,1-1.41.71,1.32,1.32,0,0,0-.39-.39,1.43,1.43,0,0,0-2.19.78,9.79,9.79,0,0,1-2.74-.47,1.4,1.4,0,0,0-.06-.41,1.58,1.58,0,0,0-.76-1,1.61,1.61,0,0,0-1.84.2,14.54,14.54,0,0,1-2-1.4,1.61,1.61,0,0,0-2-2.18c0-.07-.11-.14-.16-.22a13.51,13.51,0,0,1-1.08-1.87,1.55,1.55,0,0,0,.5-.66,1.59,1.59,0,0,0,0-1.23,1.61,1.61,0,0,0-.9-.84,1.51,1.51,0,0,0-.47-.09,12,12,0,0,1-.21-2.67,1.34,1.34,0,0,0,.45-.29,1.43,1.43,0,0,0,.47-1,1.46,1.46,0,0,0-.38-1c0-.06-.12-.08-.18-.13a7.82,7.82,0,0,1,1.86-3.39c-1.24,2.93-.48,7.17,2,10.83S50.07,62,53.2,62a5.22,5.22,0,0,0,3-.87,4.37,4.37,0,0,0,.6-.53A3.88,3.88,0,0,1,55.25,62.81Z" fill="#000000"/></g></svg>