<svg xmlns="http://www.w3.org/2000/svg" id="Layer_1" data-name="Layer 1" viewBox="0 0 70 70"><defs fill="#000000"><style>.cls-1,.cls-2{fill:none;stroke:#fe7300;stroke-width:1.5px;}.cls-1{stroke-linecap:round;stroke-linejoin:round;}.cls-2{stroke-miterlimit:10;}</style></defs><title>Artboard 5</title><g id="Metallurgy"><path class="cls-1" d="M15.21,25.21,8.8,23.54l-.75,2.91-.31,1.2c-3.17,12.16,4,25.44,16.06,28.94A23.49,23.49,0,0,0,52.54,41.74a2,2,0,0,1,2.4-1.31h0l4,1h0a3.75,3.75,0,0,0-1.57-4.08h0a22,22,0,0,0-6.63-2.94L27,28.27" fill="#000000"/><path class="cls-1" d="M57.57,41.67V60.09a1,1,0,0,0,2.08,0" fill="#000000"/><path class="cls-1" d="M59.65,50.33V63.27a1.68,1.68,0,0,0,3.36,0V41.07" fill="#000000"/><path class="cls-1" d="M45.26,32.7A10.85,10.85,0,0,1,63,41.07" fill="#000000"/><path class="cls-1" d="M27,10.55a5.87,5.87,0,0,0-11.72,0h0V35.2A5.88,5.88,0,0,0,27,35.2V10.55Z" fill="#000000"/><circle class="cls-2" cx="21.09" cy="34.75" r="2.09" fill="#000000"/></g></svg>