<svg xmlns="http://www.w3.org/2000/svg" id="Layer_1" data-name="Layer 1" viewBox="0 0 70 70"><defs fill="#fe7300"><style>.cls-1{fill:#fe7300;}</style></defs><title>Artboard 6</title><g id="Polymers"><path class="cls-1" d="M17,41.38a5.18,5.18,0,0,0,3.22,1.47,5.57,5.57,0,0,0,3.35-1.56A4.38,4.38,0,0,1,26,40.05a3.21,3.21,0,0,1,1.84.82c.19-.47.39-.93.61-1.39a4.2,4.2,0,0,0-2.45-.9,5.57,5.57,0,0,0-3.35,1.56,4.45,4.45,0,0,1-2.43,1.24A3.82,3.82,0,0,1,18,40.23a6.19,6.19,0,0,0-3.08-1.65,4.52,4.52,0,0,0-2.57.55l6.89-12.5a.77.77,0,0,0,.09-.36V8.21a.73.73,0,0,0-.23-.5L17.64,6.24h9.28L25.45,7.71a.69.69,0,0,0-.23.5l0,18.06a.78.78,0,0,0,.14.41L31,35.6c.33-.39.68-.77,1-1.14L26.73,26l0-17.55L29.17,6a.74.74,0,0,0,0-1,.77.77,0,0,0-.48-.2H15.71a.73.73,0,0,0-.57.87.75.75,0,0,0,.2.37l2.48,2.48V26.13L7.07,45.56a.57.57,0,0,0,0,.14A3.52,3.52,0,0,0,7.72,49a3.16,3.16,0,0,0,2.52,1.15H26.69c-.06-.49-.09-1-.11-1.47H10.24A1.9,1.9,0,0,1,8.82,48a1.88,1.88,0,0,1-.37-1.88l2.39-4.32a10.17,10.17,0,0,1,1.38-1,4.6,4.6,0,0,1,2.48-.78h0A5,5,0,0,1,17,41.38Z" fill="#fe7300"/><path class="cls-1" d="M50.06,31.06V13a.74.74,0,0,0-.73-.74h-7.4a.73.73,0,0,0-.59.74v18A17.36,17.36,0,1,0,62.47,52.37a1,1,0,0,0,.09-.18s0,0,0,0V52a17.56,17.56,0,0,0,.55-4.19A17.35,17.35,0,0,0,50.06,31.06ZM45.7,63.76A15.87,15.87,0,0,1,30.4,52.19a9.24,9.24,0,0,1,1.33-1,4.81,4.81,0,0,1,2.49-.78h0a5.17,5.17,0,0,1,2.38,1.33,5,5,0,0,0,3.17,1.47,5.54,5.54,0,0,0,3.36-1.56,4.41,4.41,0,0,1,2.43-1.24A4.38,4.38,0,0,1,48,51.68a5.45,5.45,0,0,0,3.21,1.52s.06,0,.09,0v0A4.83,4.83,0,0,0,55,51.82c.93-.75,1.62-1.38,2.52-1.38a4,4,0,0,1,2.44.92c.31.24.58.47.83.69l.23.23A15.9,15.9,0,0,1,45.7,63.76ZM61.36,50.63a5.55,5.55,0,0,0-.55-.46A5.43,5.43,0,0,0,57.5,49a5.44,5.44,0,0,0-3.44,1.7c-.89.72-1.56,1.26-2.67,1.11H51.3a4.31,4.31,0,0,1-2.43-1.25A5.4,5.4,0,0,0,45.56,49a5.46,5.46,0,0,0-3.31,1.56,4.46,4.46,0,0,1-2.48,1.25,3.79,3.79,0,0,1-2.25-1.15A6.24,6.24,0,0,0,34.4,49,5.44,5.44,0,0,0,31,50a11.2,11.2,0,0,0-1,.65,15.3,15.3,0,0,1-.28-2.81A16,16,0,0,1,42.25,32.25a.75.75,0,0,0,.56-.69V13.74h5.78V31.56a.75.75,0,0,0,.6.69A16,16,0,0,1,61.64,47.82,16.22,16.22,0,0,1,61.36,50.63Z" fill="#fe7300"/></g></svg>