<svg xmlns="http://www.w3.org/2000/svg" id="Layer_1" data-name="Layer 1" viewBox="0 0 70 70"><defs fill="#000000"><style>.cls-1{fill:#257fea;}</style></defs><title>Artboard 3</title><g id="Energy"><path class="cls-1" d="M35,25a.9.9,0,0,1-.9-.9V6.56a.9.9,0,0,1,1.8,0V24.08A.9.9,0,0,1,35,25Z" fill="#000000"/><path class="cls-1" d="M35,64.34A29,29,0,0,1,23.58,62,29.32,29.32,0,0,1,8,46.42,29.38,29.38,0,0,1,8,23.58,29.32,29.32,0,0,1,23.58,8a.85.85,0,0,1,.35-.08.89.89,0,0,1,.82.55.87.87,0,0,1,0,.69.92.92,0,0,1-.48.49,27.55,27.55,0,0,0-8.76,44.86,27.55,27.55,0,0,0,44.86-8.76A27.56,27.56,0,0,0,45.72,9.62a.92.92,0,0,1-.48-.49.87.87,0,0,1,0-.69.89.89,0,0,1,.82-.55.85.85,0,0,1,.35.08A29.34,29.34,0,0,1,35,64.34Z" fill="#000000"/><path class="cls-1" d="M54.36,26.82A21,21,0,0,0,43.18,15.64a1,1,0,0,0-.35-.07.91.91,0,0,0-.83.55.89.89,0,0,0,0,.68.86.86,0,0,0,.48.49A19.24,19.24,0,0,1,52.71,42.48h0A19.24,19.24,0,0,1,27.52,52.71h0a19.23,19.23,0,0,1,0-35.42A.86.86,0,0,0,28,16.8a.89.89,0,0,0,0-.68.91.91,0,0,0-.83-.55.84.84,0,0,0-.35.07A21,21,0,0,0,15.64,43.18a22.12,22.12,0,0,0,1.12,2.23,21.43,21.43,0,0,0,3.38,4.45,21.05,21.05,0,0,0,23,4.5h0A21,21,0,0,0,54.36,26.82Z" fill="#000000"/></g></svg>