<svg xmlns="http://www.w3.org/2000/svg" id="Layer_1" data-name="Layer 1" viewBox="0 0 70 70"><defs fill="#000000"><style>.cls-1{fill:#257fea;}</style></defs><title>Artboard 4</title><path class="cls-1" d="M32.67,45.23a7.89,7.89,0,1,1,7.89-7.89A7.9,7.9,0,0,1,32.67,45.23Zm0-14a6.15,6.15,0,1,0,6.15,6.15A6.15,6.15,0,0,0,32.67,31.19Z" fill="#000000"/><path class="cls-1" d="M32.67,66.3A28.95,28.95,0,0,1,31.51,8.43h.29V4.57a.87.87,0,0,1,.87-.87A33.68,33.68,0,0,1,66.31,37.34a.87.87,0,0,1-.87.87H61.59v.29A29,29,0,0,1,43.75,64.09,28.68,28.68,0,0,1,32.67,66.3ZM31.48,10.17A27.21,27.21,0,1,0,59.84,38.52v-.31H51.39a.87.87,0,0,1-.87-.87A17.87,17.87,0,0,0,32.67,19.49a.87.87,0,0,1-.87-.87V10.15Zm29.08,26.3.21,0,.15,0h3.54v-.31a32,32,0,0,0-30.6-30.6h-.31V9.06a.91.91,0,0,1,0,.33V18h.28A19.45,19.45,0,0,1,52,36.19l0,.28Z" fill="#000000"/><path class="cls-1" d="M32.67,49.91A12.57,12.57,0,1,1,45.24,37.34,12.59,12.59,0,0,1,32.67,49.91Zm0-23.4A10.83,10.83,0,1,0,43.5,37.34,10.85,10.85,0,0,0,32.67,26.51Z" fill="#000000"/></svg>